# xmcd
#
# Track frame offsets: 
#        150
#        38715
#        74785
#        91851
#        115266
#        140394
#        170770
#        196890
#
# Disc length: 2895 seconds
#
# Revision: 0
# Processed by: cddbd v1.5.2PL0 Copyright (c) Steve Scherf et al.
# Submitted via: ExactAudioCopy v1.0b1
#
DISCID=700b4d08
DTITLE=Big Mama Thornton - The Way It Is
DYEAR=1970
DGENRE=Blues
TTITLE0=Little Red Rooster
TTITLE1=One Black Rat
TTITLE2=Rock Me Baby
TTITLE3=Wade in the Water
TTITLE4=Sweet Little Angel
TTITLE5=Baby Please Don't Go Got My Mojo Workin'
TTITLE6=Watermelon Man
TTITLE7=Don't Need No Doctor
EXTD=
EXTT0=
EXTT1=
EXTT2=
EXTT3=
EXTT4=
EXTT5=
EXTT6=
EXTT7=
PLAYORDER=
